<svg width="170" height="56" viewBox="0 0 170 56" fill="none" xmlns="http://www.w3.org/2000/svg"><path d="M169 49.587C169 52.5776 166.837 55 164.162 55H5.84409C3.17031 55 1 52.5776 1 49.587V6.42007C1 3.4309 3.17031 1 5.84409 1H164.161C166.837 1 168.999 3.4309 168.999 6.42007L169 49.587Z" fill="black"/><path d="M163.704 1.12175C166.619 1.12175 168.991 3.759 168.991 7V49C168.991 52.241 166.619 54.8783 163.704 54.8783H6.2963C3.38111 54.8783 1.00898 52.241 1.00898 49V7C1.00898 3.759 3.38111 1.12175 6.2963 1.12175H163.704ZM163.704 0H6.2963C2.83491 0 0 3.15175 0 7V49C0 52.8482 2.83491 56 6.2963 56H163.704C167.165 56 170 52.8482 170 49V7C170 3.15175 167.165 0 163.704 0Z" fill="black"/><path d="M163.704 0.62175C166.944 0.62175 169.491 3.534 169.491 7V49C169.491 52.466 166.944 55.3783 163.704 55.3783H6.2963C3.05646 55.3783 0.508981 52.466 0.508981 49V7C0.508981 3.534 3.05646 0.62175 6.2963 0.62175H163.704ZM163.704 0.5H6.2963C3.15956 0.5 0.5 3.37675 0.5 7V49C0.5 52.6233 3.15956 55.5 6.2963 55.5H163.704C166.84 55.5 169.5 52.6233 169.5 49V7C169.5 3.37675 166.84 0.5 163.704 0.5Z" stroke="#A051FA" stroke-opacity="0.5"/><path d="M41.3301 27.819C41.2949 23.9905 44.5324 22.1279 44.6804 22.0412C42.8469 19.4243 40.0051 19.0668 39.0064 19.0382C36.6196 18.7924 34.3044 20.4364 33.0885 20.4364C31.8484 20.4364 29.976 19.062 27.9581 19.1024C25.3614 19.1416 22.9321 20.6134 21.5997 22.8988C18.8501 27.5589 20.9008 34.4069 23.5351 38.1737C24.8529 40.0185 26.3928 42.0782 28.4083 42.0058C30.3801 41.9262 31.1167 40.7751 33.4962 40.7751C35.8539 40.7751 36.5456 42.0058 38.6011 41.9594C40.7173 41.9262 42.0497 40.1064 43.3214 38.245C44.8442 36.1305 45.4558 34.0482 45.4801 33.9413C45.4303 33.9247 41.3702 32.4078 41.3301 27.819Z" fill="white"/><path d="M37.4471 16.5603C38.5077 15.262 39.2333 13.4956 39.0319 11.7031C37.4969 11.7696 35.5772 12.7425 34.4718 14.0124C33.4938 15.1313 32.6201 16.9654 32.8458 18.6902C34.5701 18.8161 36.3405 17.8385 37.4471 16.5603Z" fill="white"/><path d="M63.2905 16.2084C63.2905 17.6065 62.8622 18.659 62.0067 19.3658C61.2143 20.0179 60.0883 20.3446 58.6297 20.3446C57.9065 20.3446 57.2877 20.3137 56.7695 20.2519V12.6127C57.4454 12.5058 58.1735 12.4512 58.9598 12.4512C60.3492 12.4512 61.3964 12.747 62.1026 13.3385C62.8937 14.0073 63.2905 14.9635 63.2905 16.2084ZM61.9497 16.2429C61.9497 15.3365 61.7046 14.6416 61.2143 14.157C60.7241 13.6735 60.0082 13.4312 59.0653 13.4312C58.6649 13.4312 58.3239 13.4573 58.0412 13.5119V19.3195C58.1977 19.3432 58.4841 19.3539 58.9003 19.3539C59.8735 19.3539 60.6246 19.089 61.1537 18.5592C61.6827 18.0294 61.9497 17.2573 61.9497 16.2429Z" fill="white"/><path d="M70.4003 17.43C70.4003 18.2912 70.1491 18.9968 69.6467 19.5504C69.1201 20.1194 68.4224 20.4033 67.5511 20.4033C66.7114 20.4033 66.0428 20.1312 65.5441 19.5848C65.0466 19.0396 64.7979 18.3518 64.7979 17.5227C64.7979 16.6555 65.0539 15.944 65.5684 15.3916C66.0829 14.8393 66.7745 14.5625 67.6458 14.5625C68.4855 14.5625 69.1601 14.8345 69.671 15.3798C70.1564 15.9095 70.4003 16.5938 70.4003 17.43ZM69.0813 17.4704C69.0813 16.9537 68.9672 16.5106 68.7403 16.1412C68.4733 15.6945 68.0935 15.4712 67.5997 15.4712C67.0888 15.4712 66.7005 15.6945 66.4336 16.1412C66.2054 16.5106 66.0926 16.9608 66.0926 17.493C66.0926 18.0097 66.2066 18.4528 66.4336 18.8222C66.709 19.2689 67.0925 19.4922 67.5875 19.4922C68.0729 19.4922 68.4539 19.2653 68.7282 18.8103C68.9636 18.4338 69.0813 17.9871 69.0813 17.4704Z" fill="white"/><path d="M79.9328 14.6758L78.1429 20.2754H76.9781L76.2366 17.8438C76.0486 17.2368 75.8957 16.6334 75.7768 16.0347H75.7537C75.6433 16.65 75.4904 17.2523 75.2938 17.8438L74.5063 20.2754H73.328L71.645 14.6758H72.9519L73.5986 17.3378C73.7552 17.9674 73.8838 18.5673 73.9869 19.1351H74.01C74.1046 18.667 74.2612 18.0707 74.482 17.3497L75.2938 14.677H76.3301L77.1079 17.2927C77.296 17.9306 77.4489 18.5447 77.5666 19.1362H77.6018C77.6879 18.5601 77.8177 17.946 77.9901 17.2927L78.6841 14.677H79.9328V14.6758Z" fill="white"/><path d="M86.5251 20.2739H85.2534V17.0666C85.2534 16.0783 84.87 15.5842 84.1007 15.5842C83.7233 15.5842 83.4187 15.7196 83.1821 15.9916C82.9479 16.2636 82.829 16.5843 82.829 16.9514V20.2727H81.5573V16.2743C81.5573 15.7825 81.5416 15.2492 81.5112 14.6719H82.6288L82.6883 15.5473H82.7234C82.8715 15.2753 83.0923 15.0508 83.3823 14.8714C83.727 14.6624 84.1128 14.5566 84.5351 14.5566C85.069 14.5566 85.5131 14.7253 85.8662 15.0639C86.3055 15.4784 86.5251 16.0973 86.5251 16.9193V20.2739V20.2739Z" fill="white"/><path d="M90.0322 20.2745H88.7617V12.1055H90.0322V20.2745Z" fill="white"/><path d="M97.5189 17.43C97.5189 18.2912 97.2677 18.9968 96.7654 19.5504C96.2388 20.1194 95.5398 20.4033 94.6698 20.4033C93.8289 20.4033 93.1603 20.1312 92.6628 19.5848C92.1653 19.0396 91.9165 18.3518 91.9165 17.5227C91.9165 16.6555 92.1725 15.944 92.687 15.3916C93.2015 14.8393 93.8932 14.5625 94.7632 14.5625C95.6041 14.5625 96.2776 14.8345 96.7897 15.3798C97.275 15.9095 97.5189 16.5938 97.5189 17.43ZM96.1987 17.4704C96.1987 16.9537 96.0846 16.5106 95.8577 16.1412C95.592 15.6945 95.211 15.4712 94.7183 15.4712C94.2063 15.4712 93.818 15.6945 93.5522 16.1412C93.3241 16.5106 93.2112 16.9608 93.2112 17.493C93.2112 18.0097 93.3253 18.4528 93.5522 18.8222C93.8277 19.2689 94.2111 19.4922 94.7062 19.4922C95.1916 19.4922 95.5714 19.2653 95.8456 18.8103C96.0822 18.4338 96.1987 17.9871 96.1987 17.4704Z" fill="white"/><path d="M103.674 20.2762H102.532L102.437 19.6312H102.402C102.011 20.1455 101.454 20.4033 100.731 20.4033C100.191 20.4033 99.7541 20.2334 99.4253 19.8961C99.1268 19.5896 98.9775 19.2083 98.9775 18.7557C98.9775 18.0715 99.2688 17.55 99.8548 17.1889C100.44 16.8278 101.262 16.6508 102.322 16.6591V16.5546C102.322 15.8169 101.926 15.4487 101.134 15.4487C100.57 15.4487 100.072 15.5876 99.6425 15.8632L99.384 15.046C99.9155 14.7241 100.572 14.5625 101.346 14.5625C102.841 14.5625 103.591 15.3346 103.591 16.8789V18.941C103.591 19.5005 103.619 19.9459 103.674 20.2762ZM102.353 18.3518V17.4882C100.951 17.4645 100.249 17.841 100.249 18.6167C100.249 18.9089 100.329 19.1275 100.493 19.2736C100.657 19.4197 100.866 19.4922 101.114 19.4922C101.393 19.4922 101.654 19.4055 101.892 19.2332C102.131 19.0598 102.278 18.84 102.333 18.5704C102.346 18.5098 102.353 18.4362 102.353 18.3518Z" fill="white"/><path d="M110.899 20.2745H109.771L109.711 19.3753H109.676C109.316 20.0595 108.702 20.4016 107.839 20.4016C107.15 20.4016 106.576 20.1367 106.121 19.6069C105.666 19.0771 105.439 18.3893 105.439 17.5447C105.439 16.6384 105.685 15.9043 106.18 15.3436C106.66 14.8209 107.247 14.5596 107.946 14.5596C108.714 14.5596 109.252 14.8126 109.557 15.3199H109.582V12.1055H110.855V18.7659C110.855 19.3111 110.869 19.8136 110.899 20.2745ZM109.582 17.913V16.9793C109.582 16.8178 109.569 16.6871 109.546 16.5873C109.475 16.288 109.321 16.0361 109.087 15.833C108.85 15.6299 108.565 15.5277 108.236 15.5277C107.761 15.5277 107.39 15.7119 107.117 16.0813C106.847 16.4507 106.709 16.9223 106.709 17.4984C106.709 18.052 106.839 18.501 107.1 18.8466C107.376 19.2149 107.747 19.399 108.212 19.399C108.629 19.399 108.963 19.2458 109.216 18.9381C109.461 18.6542 109.582 18.3121 109.582 17.913Z" fill="white"/><path d="M121.776 17.43C121.776 18.2912 121.525 18.9968 121.022 19.5504C120.496 20.1194 119.799 20.4033 118.927 20.4033C118.088 20.4033 117.42 20.1312 116.92 19.5848C116.422 19.0396 116.173 18.3518 116.173 17.5227C116.173 16.6555 116.429 15.944 116.944 15.3916C117.458 14.8393 118.15 14.5625 119.022 14.5625C119.861 14.5625 120.537 14.8345 121.046 15.3798C121.532 15.9095 121.776 16.5938 121.776 17.43ZM120.458 17.4704C120.458 16.9537 120.344 16.5106 120.117 16.1412C119.849 15.6945 119.47 15.4712 118.975 15.4712C118.466 15.4712 118.077 15.6945 117.809 16.1412C117.581 16.5106 117.468 16.9608 117.468 17.493C117.468 18.0097 117.582 18.4528 117.809 18.8222C118.084 19.2689 118.468 19.4922 118.963 19.4922C119.448 19.4922 119.831 19.2653 120.105 18.8103C120.339 18.4338 120.458 17.9871 120.458 17.4704Z" fill="white"/><path d="M128.613 20.2739H127.343V17.0666C127.343 16.0783 126.959 15.5842 126.189 15.5842C125.811 15.5842 125.507 15.7196 125.271 15.9916C125.036 16.2636 124.918 16.5843 124.918 16.9514V20.2727H123.645V16.2743C123.645 15.7825 123.631 15.2492 123.601 14.6719H124.717L124.776 15.5473H124.812C124.961 15.2753 125.182 15.0508 125.47 14.8714C125.816 14.6624 126.201 14.5566 126.624 14.5566C127.157 14.5566 127.601 14.7253 127.954 15.0639C128.395 15.4784 128.613 16.0973 128.613 16.9193V20.2739V20.2739Z" fill="white"/><path d="M137.172 15.6063H135.771V18.3266C135.771 19.0179 136.02 19.3636 136.513 19.3636C136.741 19.3636 136.93 19.3446 137.08 19.3054L137.112 20.2497C136.861 20.3424 136.531 20.3887 136.125 20.3887C135.622 20.3887 135.231 20.239 134.949 19.9397C134.665 19.6404 134.524 19.1367 134.524 18.4299V15.6063H133.688V14.6739H134.524V13.6475L135.77 13.2793V14.6727H137.171V15.6063H137.172Z" fill="white"/><path d="M143.903 20.2745H142.63V17.091C142.63 16.0872 142.247 15.5847 141.479 15.5847C140.889 15.5847 140.486 15.8758 140.265 16.4578C140.228 16.5802 140.206 16.7299 140.206 16.9057V20.2733H138.936V12.1055H140.206V15.4802H140.23C140.631 14.8661 141.205 14.5596 141.949 14.5596C142.475 14.5596 142.911 14.7283 143.257 15.0668C143.687 15.4885 143.903 16.1157 143.903 16.9449V20.2745V20.2745Z" fill="white"/><path d="M150.848 17.2104C150.848 17.4337 150.831 17.6214 150.801 17.7747H146.987C147.004 18.3282 147.186 18.7499 147.539 19.0421C147.862 19.3035 148.278 19.4341 148.788 19.4341C149.352 19.4341 149.867 19.3462 150.33 19.1692L150.529 20.034C149.987 20.2645 149.348 20.3797 148.609 20.3797C147.724 20.3797 147.026 20.1243 146.521 19.6135C146.014 19.1027 145.763 18.4173 145.763 17.5573C145.763 16.7127 145.997 16.0095 146.469 15.4488C146.962 14.8501 147.628 14.5508 148.469 14.5508C149.291 14.5508 149.916 14.8501 150.339 15.4488C150.68 15.924 150.848 16.512 150.848 17.2104ZM149.635 16.8885C149.644 16.5191 149.561 16.2007 149.388 15.9323C149.168 15.5866 148.831 15.4132 148.376 15.4132C147.961 15.4132 147.623 15.5819 147.364 15.9204C147.153 16.19 147.028 16.512 146.987 16.8885H149.635Z" fill="white"/><path d="M68.021 40.748H65.4362L64.0202 36.3925H59.0987L57.7499 40.748H55.2334L60.1094 25.9199H63.1211L68.021 40.748ZM63.5934 34.5651L62.313 30.6932C62.1775 30.2977 61.9237 29.3662 61.5492 27.8999H61.5037C61.3546 28.5305 61.1144 29.462 60.7844 30.6932L59.5267 34.5651H63.5934V34.5651Z" fill="white"/><path d="M80.5605 35.268C80.5605 37.0864 80.0586 38.5238 79.0547 39.5789C78.1555 40.5182 77.039 40.9873 75.7061 40.9873C74.2675 40.9873 73.234 40.4815 72.6046 39.4698H72.559V45.1021H70.1324V33.5733C70.1324 32.4301 70.1017 31.2568 70.0425 30.0535H72.1766L72.312 31.7482H72.3576C73.1668 30.4713 74.3949 29.834 76.043 29.834C77.3315 29.834 78.4071 30.332 79.2675 31.3293C80.1303 32.3276 80.5605 33.6402 80.5605 35.268ZM78.0884 35.3549C78.0884 34.3143 77.8494 33.4563 77.369 32.7811C76.8443 32.0769 76.1398 31.7248 75.2565 31.7248C74.6579 31.7248 74.1138 31.9209 73.6278 32.3076C73.1406 32.6975 72.8219 33.2067 72.6728 33.8374C72.5977 34.1315 72.5602 34.3722 72.5602 34.5616V36.3444C72.5602 37.1221 72.8037 37.7784 73.2909 38.3143C73.778 38.8502 74.4109 39.1177 75.1894 39.1177C76.1034 39.1177 76.8147 38.7722 77.3235 38.0837C77.8334 37.394 78.0884 36.4848 78.0884 35.3549Z" fill="white"/><path d="M93.1224 35.268C93.1224 37.0864 92.6204 38.5238 91.6154 39.5789C90.7174 40.5182 89.6008 40.9873 88.268 40.9873C86.8293 40.9873 85.7958 40.4815 85.1675 39.4698H85.122V45.1021H82.6954V33.5733C82.6954 32.4301 82.6647 31.2568 82.6055 30.0535H84.7396L84.875 31.7482H84.9206C85.7287 30.4713 86.9568 29.834 88.606 29.834C89.8933 29.834 90.9689 30.332 91.8317 31.3293C92.691 32.3276 93.1224 33.6402 93.1224 35.268ZM90.6502 35.3549C90.6502 34.3143 90.4101 33.4563 89.9297 32.7811C89.405 32.0769 88.7028 31.7248 87.8184 31.7248C87.2186 31.7248 86.6757 31.9209 86.1885 32.3076C85.7014 32.6975 85.3838 33.2067 85.2347 33.8374C85.1607 34.1315 85.122 34.3722 85.122 34.5616V36.3444C85.122 37.1221 85.3656 37.7784 85.8505 38.3143C86.3376 38.8491 86.9704 39.1177 87.7512 39.1177C88.6652 39.1177 89.3766 38.7722 89.8854 38.0837C90.3953 37.394 90.6502 36.4848 90.6502 35.3549Z" fill="white"/><path d="M107.168 36.5882C107.168 37.8495 106.721 38.8757 105.823 39.6679C104.836 40.5337 103.462 40.966 101.697 40.966C100.067 40.966 98.7606 40.6585 97.7715 40.0423L98.3338 38.0623C99.3991 38.693 100.568 39.0094 101.842 39.0094C102.756 39.0094 103.467 38.8066 103.978 38.4033C104.487 37.9999 104.741 37.4584 104.741 36.7832C104.741 36.1815 104.531 35.6745 104.111 35.2634C103.694 34.8523 102.996 34.4701 102.021 34.1169C99.3695 33.1486 98.0447 31.7302 98.0447 29.865C98.0447 28.6461 98.509 27.6466 99.4389 26.8689C100.365 26.09 101.602 25.7012 103.147 25.7012C104.526 25.7012 105.671 25.9363 106.585 26.4054L105.978 28.3419C105.124 27.8873 104.159 27.66 103.079 27.66C102.225 27.66 101.558 27.8661 101.08 28.2761C100.676 28.6427 100.474 29.0895 100.474 29.6188C100.474 30.2048 100.705 30.6895 101.169 31.0706C101.573 31.4227 102.307 31.8038 103.373 32.2149C104.676 32.7286 105.633 33.3291 106.249 34.0177C106.862 34.7041 107.168 35.5631 107.168 36.5882Z" fill="white"/><path d="M115.191 31.8375H112.516V37.0286C112.516 38.349 112.988 39.0086 113.932 39.0086C114.366 39.0086 114.726 38.9718 115.01 38.8983L115.077 40.7022C114.599 40.8771 113.97 40.9652 113.19 40.9652C112.232 40.9652 111.483 40.6788 110.942 40.1072C110.404 39.5345 110.133 38.574 110.133 37.2247V31.8352H108.54V30.0525H110.133V28.0948L112.516 27.3906V30.0525H115.191V31.8375Z" fill="white"/><path d="M127.259 35.3123C127.259 36.9558 126.779 38.3051 125.821 39.3603C124.816 40.4466 123.482 40.9882 121.819 40.9882C120.216 40.9882 118.94 40.4678 117.989 39.4271C117.037 38.3865 116.562 37.0728 116.562 35.4895C116.562 33.8326 117.051 32.4755 118.033 31.4204C119.013 30.3641 120.336 29.8359 121.999 29.8359C123.601 29.8359 124.891 30.3563 125.864 31.3981C126.795 32.4087 127.259 33.7134 127.259 35.3123ZM124.742 35.3892C124.742 34.4031 124.527 33.5574 124.091 32.8521C123.582 31.9986 122.855 31.573 121.912 31.573C120.937 31.573 120.196 31.9998 119.687 32.8521C119.251 33.5585 119.036 34.4176 119.036 35.4338C119.036 36.4199 119.251 37.2655 119.687 37.9697C120.212 38.8232 120.945 39.2489 121.891 39.2489C122.817 39.2489 123.544 38.8143 124.069 37.9475C124.516 37.2288 124.742 36.3742 124.742 35.3892Z" fill="white"/><path d="M135.147 32.1426C134.907 32.0992 134.651 32.0769 134.382 32.0769C133.529 32.0769 132.869 32.3922 132.404 33.024C132 33.5811 131.798 34.2853 131.798 35.1354V40.7455H129.372L129.395 33.4207C129.395 32.1883 129.364 31.0663 129.304 30.0546H131.417L131.506 32.1003H131.573C131.829 31.3972 132.233 30.8312 132.787 30.4067C133.327 30.0245 133.911 29.834 134.541 29.834C134.765 29.834 134.967 29.8496 135.147 29.8774V32.1426Z" fill="white"/><path d="M146 34.8961C146 35.3218 145.972 35.6805 145.911 35.9736H138.631C138.66 37.0299 139.011 37.8377 139.688 38.3948C140.301 38.8928 141.094 39.1424 142.069 39.1424C143.147 39.1424 144.13 38.9742 145.014 38.6366L145.394 40.2856C144.361 40.7268 143.141 40.9463 141.733 40.9463C140.039 40.9463 138.71 40.4583 137.742 39.4834C136.777 38.5084 136.293 37.1992 136.293 35.5569C136.293 33.9446 136.743 32.602 137.643 31.5312C138.586 30.388 139.859 29.8164 141.462 29.8164C143.036 29.8164 144.228 30.388 145.037 31.5312C145.678 32.4393 146 33.5624 146 34.8961ZM143.686 34.28C143.702 33.5758 143.544 32.9674 143.215 32.4538C142.795 31.793 142.149 31.4632 141.281 31.4632C140.488 31.4632 139.842 31.7852 139.35 32.4315C138.945 32.9451 138.705 33.5613 138.631 34.2789H143.686V34.28Z" fill="white"/></svg>