<svg xmlns="http://www.w3.org/2000/svg" viewBox="0 0 24 24" width="24" height="24"><g fill="none"><g id="ph:arrow-right"> <path id="Vector" d="M17.8534 11.8534L13.3535 16.3532C13.2597 16.447 13.1324 16.4997 12.9998 16.4997C12.8671 16.4997 12.7398 16.447 12.646 16.3532C12.5522 16.2594 12.4995 16.1322 12.4995 15.9995C12.4995 15.8668 12.5522 15.7396 12.646 15.6457L16.2928 11.9996H6.49998C6.36738 11.9996 6.24021 11.9469 6.14644 11.8532C6.05268 11.7594 6 11.6322 6 11.4996C6 11.367 6.05268 11.2398 6.14644 11.1461C6.24021 11.0523 6.36738 10.9996 6.49998 10.9996H16.2928L12.646 7.35351C12.5522 7.25969 12.4995 7.13245 12.4995 6.99977C12.4995 6.8671 12.5522 6.73985 12.646 6.64603C12.7398 6.55222 12.8671 6.49951 12.9998 6.49951C13.1324 6.49951 13.2597 6.55222 13.3535 6.64603L17.8534 11.1459C17.8998 11.1923 17.9367 11.2475 17.9619 11.3082C17.9871 11.3689 18 11.4339 18 11.4996C18 11.5653 17.9871 11.6304 17.9619 11.6911C17.9367 11.7518 17.8998 11.8069 17.8534 11.8534Z" fill="#6A39B5"/> </g></g></svg>
