<svg width="170" height="56" viewBox="0 0 170 56" fill="none" xmlns="http://www.w3.org/2000/svg"><path d="M163.704 56H6.2963C2.83491 56 0 52.8482 0 49V7C0 3.15175 2.83491 9.53674e-07 6.2963 9.53674e-07H163.704C167.165 9.53674e-07 170 3.15175 170 7V49C170 52.8482 167.165 56 163.704 56Z" fill="black"/><mask id="path-2-inside-1_4619_15431" fill="white"><path d="M163.704 1.12175C166.619 1.12175 168.991 3.759 168.991 7V49C168.991 52.241 166.619 54.8783 163.704 54.8783H6.2963C3.38111 54.8783 1.00898 52.241 1.00898 49V7C1.00898 3.759 3.38111 1.12175 6.2963 1.12175H163.704ZM163.704 9.53674e-07H6.2963C2.83491 9.53674e-07 0 3.15175 0 7V49C0 52.8482 2.83491 56 6.2963 56H163.704C167.165 56 170 52.8482 170 49V7C170 3.15175 167.165 9.53674e-07 163.704 9.53674e-07Z"/></mask><path d="M163.704 1.12175C166.619 1.12175 168.991 3.759 168.991 7V49C168.991 52.241 166.619 54.8783 163.704 54.8783H6.2963C3.38111 54.8783 1.00898 52.241 1.00898 49V7C1.00898 3.759 3.38111 1.12175 6.2963 1.12175H163.704ZM163.704 9.53674e-07H6.2963C2.83491 9.53674e-07 0 3.15175 0 7V49C0 52.8482 2.83491 56 6.2963 56H163.704C167.165 56 170 52.8482 170 49V7C170 3.15175 167.165 9.53674e-07 163.704 9.53674e-07Z" fill="black"/><path d="M163.704 -0.128249C167.431 -0.128249 170.241 3.19651 170.241 7H167.741C167.741 4.32149 165.807 2.37175 163.704 2.37175V-0.128249ZM170.241 7V49H167.741V7H170.241ZM170.241 49C170.241 52.8035 167.431 56.1283 163.704 56.1283V53.6283C165.807 53.6283 167.741 51.6785 167.741 49H170.241ZM163.704 56.1283H6.2963V53.6283H163.704V56.1283ZM6.2963 56.1283C2.56948 56.1283 -0.241019 52.8035 -0.241019 49H2.25898C2.25898 51.6785 4.19274 53.6283 6.2963 53.6283V56.1283ZM-0.241019 49V7H2.25898V49H-0.241019ZM-0.241019 7C-0.241019 3.19651 2.56948 -0.128249 6.2963 -0.128249V2.37175C4.19274 2.37175 2.25898 4.32149 2.25898 7H-0.241019ZM6.2963 -0.128249H163.704V2.37175H6.2963V-0.128249ZM163.704 1.25H6.2963V-1.25H163.704V1.25ZM6.2963 1.25C3.64654 1.25 1.25 3.71424 1.25 7H-1.25C-1.25 2.58926 2.02328 -1.25 6.2963 -1.25V1.25ZM1.25 7V49H-1.25V7H1.25ZM1.25 49C1.25 52.2858 3.64654 54.75 6.2963 54.75V57.25C2.02328 57.25 -1.25 53.4107 -1.25 49H1.25ZM6.2963 54.75H163.704V57.25H6.2963V54.75ZM163.704 54.75C166.353 54.75 168.75 52.2858 168.75 49H171.25C171.25 53.4107 167.977 57.25 163.704 57.25V54.75ZM168.75 49V7H171.25V49H168.75ZM168.75 7C168.75 3.71424 166.353 1.25 163.704 1.25V-1.25C167.977 -1.25 171.25 2.58926 171.25 7H168.75Z" fill="#A051FA" fill-opacity="0.5" mask="url(#path-2-inside-1_4619_15431)"/><path d="M14.8276 13.4165C14.4682 13.7848 14.2603 14.3582 14.2603 15.1008V41.5884C14.2603 42.331 14.4682 42.9044 14.8276 43.2727L14.9164 43.3535L30.0784 28.5168V28.1664L14.9164 13.3297L14.8276 13.4165Z" fill="url(#paint0_linear_4619_15431)"/><path d="M35.1266 33.4648L30.0781 28.5168V28.1664L35.1327 23.2184L35.2458 23.2827L41.2318 26.6169C42.9401 27.5631 42.9401 29.1201 41.2318 30.0723L35.2458 33.4005L35.1266 33.4648Z" fill="url(#paint1_linear_4619_15431)"/><path d="M35.2462 33.4012L30.0784 28.3423L14.8276 43.2734C15.395 43.8572 16.3203 43.9276 17.3725 43.3437L35.2462 33.4012Z" fill="url(#paint2_linear_4619_15431)"/><path d="M35.2462 23.2849L17.3725 13.3423C16.3203 12.7644 15.395 12.8348 14.8276 13.4187L30.0784 28.3438L35.2462 23.2849Z" fill="url(#paint3_linear_4619_15431)"/><path d="M60.0753 16.6581C60.0753 17.6582 59.7694 18.4592 59.1668 19.0566C58.474 19.7647 57.5717 20.121 56.466 20.121C55.4092 20.121 54.5068 19.7587 53.7666 19.0446C53.0249 18.32 52.6548 17.4307 52.6548 16.3662C52.6548 15.3017 53.0249 14.4124 53.7666 13.6938C54.5068 12.9736 55.4092 12.6113 56.466 12.6113C56.9921 12.6113 57.4937 12.7176 57.9724 12.9152C58.4495 13.1144 58.838 13.3839 59.1194 13.7162L58.4801 14.348C57.9892 13.7806 57.3209 13.5006 56.466 13.5006C55.6952 13.5006 55.0268 13.7641 54.4594 14.2956C53.8982 14.8286 53.6168 15.5188 53.6168 16.3662C53.6168 17.2136 53.8982 17.9097 54.4594 18.4427C55.0268 18.9682 55.6952 19.2377 56.466 19.2377C57.2842 19.2377 57.9724 18.9682 58.5153 18.4367C58.8732 18.0849 59.0766 17.5998 59.1301 16.98H56.466V16.1147H60.0202C60.063 16.3018 60.0753 16.483 60.0753 16.6581Z" fill="white" stroke="white" stroke-width="0.16" stroke-miterlimit="10"/><path d="M65.7139 13.6572H62.3753V15.9329H65.3851V16.7982H62.3753V19.0739H65.7139V19.9557H61.4302V12.7754H65.7139V13.6572Z" fill="white" stroke="white" stroke-width="0.16" stroke-miterlimit="10"/><path d="M69.6936 19.9557H68.7485V13.6572H66.7007V12.7754H71.743V13.6572H69.6936V19.9557Z" fill="white" stroke="white" stroke-width="0.16" stroke-miterlimit="10"/><path d="M75.3916 19.9557V12.7754H76.3352V19.9557H75.3916Z" fill="white" stroke="white" stroke-width="0.16" stroke-miterlimit="10"/><path d="M80.5179 19.9557H79.5804V13.6572H77.5249V12.7754H82.5733V13.6572H80.5179V19.9557Z" fill="white" stroke="white" stroke-width="0.16" stroke-miterlimit="10"/><path d="M92.1199 19.0326C91.3965 19.7587 90.5003 20.121 89.4313 20.121C88.3561 20.121 87.4599 19.7587 86.7365 19.0326C86.0147 18.308 85.6553 17.4187 85.6553 16.3662C85.6553 15.3137 86.0147 14.4244 86.7365 13.6998C87.4599 12.9736 88.3561 12.6113 89.4313 12.6113C90.4942 12.6113 91.3904 12.9736 92.1138 13.7057C92.8418 14.4364 93.2012 15.3197 93.2012 16.3662C93.2012 17.4187 92.8418 18.308 92.1199 19.0326ZM87.4355 18.4307C87.9799 18.9682 88.6421 19.2377 89.4313 19.2377C90.2143 19.2377 90.8826 18.9682 91.421 18.4307C91.9639 17.8933 92.2392 17.2031 92.2392 16.3662C92.2392 15.5293 91.9639 14.8391 91.421 14.3016C90.8826 13.7641 90.2143 13.4946 89.4313 13.4946C88.6421 13.4946 87.9799 13.7641 87.4355 14.3016C86.8925 14.8391 86.6172 15.5293 86.6172 16.3662C86.6172 17.2031 86.8925 17.8933 87.4355 18.4307Z" fill="white" stroke="white" stroke-width="0.16" stroke-miterlimit="10"/><path d="M94.5273 19.9557V12.7754H95.6744L99.2408 18.3598H99.2821L99.2408 16.9794V12.7754H100.184V19.9557H99.1995L95.4648 14.0959H95.4235L95.4648 15.4822V19.9557H94.5273Z" fill="white" stroke="white" stroke-width="0.16" stroke-miterlimit="10"/><path d="M85.4229 30.4432C82.5493 30.4432 80.2017 32.5841 80.2017 35.538C80.2017 38.4679 82.5493 40.6313 85.4229 40.6313C88.3027 40.6313 90.6503 38.4679 90.6503 35.538C90.6503 32.5841 88.3027 30.4432 85.4229 30.4432ZM85.4229 38.6251C83.8461 38.6251 82.4896 37.351 82.4896 35.538C82.4896 33.701 83.8461 32.4494 85.4229 32.4494C86.9997 32.4494 88.3624 33.701 88.3624 35.538C88.3624 37.351 86.9997 38.6251 85.4229 38.6251ZM74.0307 30.4432C71.1509 30.4432 68.8095 32.5841 68.8095 35.538C68.8095 38.4679 71.1509 40.6313 74.0307 40.6313C76.909 40.6313 79.2519 38.4679 79.2519 35.538C79.2519 32.5841 76.909 30.4432 74.0307 30.4432ZM74.0307 38.6251C72.4524 38.6251 71.0913 37.351 71.0913 35.538C71.0913 33.701 72.4524 32.4494 74.0307 32.4494C75.6075 32.4494 76.964 33.701 76.964 35.538C76.964 37.351 75.6075 38.6251 74.0307 38.6251ZM60.4744 32.0047V34.1696H65.7553C65.6009 35.3793 65.1879 36.2686 64.5548 36.8884C63.784 37.637 62.5834 38.4679 60.4744 38.4679C57.2245 38.4679 54.6797 35.9003 54.6797 32.7189C54.6797 29.5374 57.2245 26.9698 60.4744 26.9698C62.2317 26.9698 63.5102 27.642 64.4538 28.5134L66.0123 26.9878C64.6924 25.7541 62.9367 24.8064 60.4744 24.8064C56.0179 24.8064 52.2725 28.3562 52.2725 32.7189C52.2725 37.0815 56.0179 40.6313 60.4744 40.6313C62.8832 40.6313 64.6924 39.8588 66.1147 38.4095C67.5722 36.9827 68.0264 34.9766 68.0264 33.3566C68.0264 32.8536 67.9836 32.391 67.9071 32.0047H60.4744ZM115.908 33.683C115.478 32.5437 114.152 30.4432 111.451 30.4432C108.775 30.4432 106.546 32.5078 106.546 35.538C106.546 38.3916 108.752 40.6313 111.708 40.6313C114.098 40.6313 115.478 39.2045 116.045 38.3736L114.271 37.2163C113.679 38.0637 112.873 38.6251 111.708 38.6251C110.55 38.6251 109.72 38.1056 109.188 37.0815L116.148 34.2624L115.908 33.683ZM108.811 35.3793C108.752 33.415 110.37 32.4089 111.529 32.4089C112.438 32.4089 113.208 32.8536 113.465 33.4899L108.811 35.3793ZM103.154 40.3214H105.442V25.3499H103.154V40.3214ZM99.4074 31.578H99.3309C98.8171 30.9822 97.8368 30.4432 96.5949 30.4432C93.9889 30.4432 91.6061 32.6829 91.6061 35.5545C91.6061 38.4095 93.9889 40.6313 96.5949 40.6313C97.8368 40.6313 98.8171 40.0878 99.3309 39.474H99.4074V40.2046C99.4074 42.1524 98.3445 43.1989 96.6301 43.1989C95.2323 43.1989 94.3651 42.2108 94.0072 41.3799L92.0175 42.1928C92.591 43.5432 94.1097 45.2051 96.6301 45.2051C99.3126 45.2051 101.576 43.66 101.576 39.9007V30.7531H99.4074V31.578ZM96.7907 38.6251C95.2139 38.6251 93.8941 37.3331 93.8941 35.5545C93.8941 33.7594 95.2139 32.4494 96.7907 32.4494C98.3445 32.4494 99.5695 33.7594 99.5695 35.5545C99.5695 37.3331 98.3445 38.6251 96.7907 38.6251ZM126.619 25.3499H121.147V40.3214H123.429V34.6487H126.619C129.154 34.6487 131.639 32.8536 131.639 29.9985C131.639 27.145 129.147 25.3499 126.619 25.3499ZM126.679 32.5661H123.429V27.4324H126.679C128.383 27.4324 129.355 28.8173 129.355 29.9985C129.355 31.1573 128.383 32.5661 126.679 32.5661ZM140.784 30.4147C139.136 30.4147 137.421 31.1274 136.716 32.7069L138.741 33.5378C139.177 32.7069 139.978 32.4374 140.826 32.4374C142.009 32.4374 143.21 33.1336 143.228 34.3627V34.5199C142.815 34.2864 141.931 33.9405 140.844 33.9405C138.663 33.9405 136.441 35.1158 136.441 37.3091C136.441 39.3153 138.227 40.6073 140.235 40.6073C141.771 40.6073 142.618 39.9291 143.15 39.1401H143.228V40.2974H145.432V34.5544C145.432 31.8999 143.407 30.4147 140.784 30.4147ZM140.509 38.6191C139.763 38.6191 138.723 38.2568 138.723 37.351C138.723 36.1922 140.02 35.7476 141.142 35.7476C142.147 35.7476 142.618 35.9647 143.228 36.2506C143.049 37.637 141.83 38.6191 140.509 38.6191ZM153.461 30.7426L150.838 37.2328H150.76L148.049 30.7426H145.588L149.662 39.8123L147.338 44.8592H149.722L156 30.7426H153.461ZM132.893 40.3214H135.181V25.3499H132.893V40.3214Z" fill="white"/><defs><linearGradient id="paint0_linear_4619_15431" x1="28.7322" y1="41.8642" x2="8.63619" y2="21.3358" gradientUnits="userSpaceOnUse"><stop stop-color="#00A0FF"/><stop offset="0.0066" stop-color="#00A1FF"/><stop offset="0.2601" stop-color="#00BEFF"/><stop offset="0.5122" stop-color="#00D2FF"/><stop offset="0.7604" stop-color="#00DFFF"/><stop offset="1" stop-color="#00E3FF"/></linearGradient><linearGradient id="paint1_linear_4619_15431" x1="43.4563" y1="28.3399" x2="13.8516" y2="28.3399" gradientUnits="userSpaceOnUse"><stop stop-color="#FFE000"/><stop offset="0.4087" stop-color="#FFBD00"/><stop offset="0.7754" stop-color="#FFA500"/><stop offset="1" stop-color="#FF9C00"/></linearGradient><linearGradient id="paint2_linear_4619_15431" x1="32.4361" y1="25.5922" x2="5.18423" y2="-2.24604" gradientUnits="userSpaceOnUse"><stop stop-color="#FF3A44"/><stop offset="1" stop-color="#C31162"/></linearGradient><linearGradient id="paint3_linear_4619_15431" x1="10.9887" y1="52.0871" x2="23.1579" y2="39.6562" gradientUnits="userSpaceOnUse"><stop stop-color="#32A071"/><stop offset="0.0685" stop-color="#2DA771"/><stop offset="0.4762" stop-color="#15CF74"/><stop offset="0.8009" stop-color="#06E775"/><stop offset="1" stop-color="#00F076"/></linearGradient></defs></svg>